<?xml version="1.0" encoding="UTF-8"?>
<!DOCTYPE svg PUBLIC "-//W3C//DTD SVG 1.1//EN" "http://www.w3.org/Graphics/SVG/1.1/DTD/svg11.dtd">
<svg xmlns="http://www.w3.org/2000/svg" version="1.1" width="500px" height="500px" style="shape-rendering:geometricPrecision; text-rendering:geometricPrecision; image-rendering:optimizeQuality; fill-rule:evenodd; clip-rule:evenodd" xmlns:xlink="http://www.w3.org/1999/xlink">
<g><path style="opacity:0.993" fill="#fefefe" d="M 325.5,499.5 C 276.167,499.5 226.833,499.5 177.5,499.5C 179.833,496.997 181.999,494.331 184,491.5C 184.5,473.17 184.667,454.836 184.5,436.5C 166.816,437.929 149.149,437.763 131.5,436C 118.426,433.051 107.926,426.218 100,415.5C 94.81,407.12 90.1433,398.454 86,389.5C 78.1667,376.333 67.6667,365.833 54.5,358C 50.5072,354.938 50.8405,352.271 55.5,350C 72.8594,347.804 87.3594,353.304 99,366.5C 116.816,401.662 144.316,412.828 181.5,400C 182.667,398.167 184.167,396.667 186,395.5C 187.147,383.512 191.98,372.845 200.5,363.5C 201.757,362.377 201.424,361.711 199.5,361.5C 181.968,358.633 164.635,354.799 147.5,350C 115.193,336.394 94.5261,313.06 85.5,280C 73.4878,245.367 75.3212,211.534 91,178.5C 95.362,171.756 99.6953,165.089 104,158.5C 103.455,147.671 102.621,136.837 101.5,126C 101.784,113.608 103.617,101.441 107,89.5C 109.425,86.0668 112.759,84.7335 117,85.5C 126.126,86.3926 134.959,88.5593 143.5,92C 157.45,99.1424 171.45,105.976 185.5,112.5C 227.047,102.459 268.714,101.959 310.5,111C 314.5,111.667 318.5,111.667 322.5,111C 338.138,102.016 354.471,94.3497 371.5,88C 376.978,87.021 382.478,86.1877 388,85.5C 390.923,85.7952 393.257,87.1285 395,89.5C 395.723,94.398 397.056,99.0647 399,103.5C 400.272,110.951 401.106,118.451 401.5,126C 400.695,136.268 399.528,146.435 398,156.5C 402.289,166.41 407.623,175.743 414,184.5C 427.913,219.432 427.913,254.432 414,289.5C 401.85,321.976 379.017,343.143 345.5,353C 331.187,355.995 316.854,358.829 302.5,361.5C 302.351,362.552 302.517,363.552 303,364.5C 310.566,374.175 315.232,385.175 317,397.5C 318.244,428.479 318.91,459.479 319,490.5C 320.686,493.883 322.853,496.883 325.5,499.5 Z"/></g>
<g><path style="opacity:0.009" fill="#000000" d="M 199.5,361.5 C 201.424,361.711 201.757,362.377 200.5,363.5C 200.167,362.833 199.833,362.167 199.5,361.5 Z"/></g>
<g><path style="opacity:0.887" fill="#fafafa" d="M -0.5,482.5 C 0.507161,485.322 1.34049,488.322 2,491.5C 4.00068,494.331 6.16735,496.997 8.5,499.5C 5.5,499.5 2.5,499.5 -0.5,499.5C -0.5,493.833 -0.5,488.167 -0.5,482.5 Z"/></g>
</svg>
