<?xml version="1.0" encoding="UTF-8"?>
<!DOCTYPE svg PUBLIC "-//W3C//DTD SVG 1.1//EN" "http://www.w3.org/Graphics/SVG/1.1/DTD/svg11.dtd">
<svg xmlns="http://www.w3.org/2000/svg" version="1.1" width="500px" height="500px" style="shape-rendering:geometricPrecision; text-rendering:geometricPrecision; image-rendering:optimizeQuality; fill-rule:evenodd; clip-rule:evenodd" xmlns:xlink="http://www.w3.org/1999/xlink">
<g><path style="opacity:0.243" fill="#4d4d4d" d="M 142.5,197.5 C 148.977,199.361 151.477,203.694 150,210.5C 149.8,212.32 148.966,213.653 147.5,214.5C 150.214,207.293 148.548,201.626 142.5,197.5 Z"/></g>
<g><path style="opacity:0.243" fill="#404040" d="M 133.5,197.5 C 132.564,198.974 131.23,199.974 129.5,200.5C 130.035,198.554 131.368,197.554 133.5,197.5 Z"/></g>
<g><path style="opacity:1" fill="#f0f0f0" d="M 142.5,197.5 C 148.548,201.626 150.214,207.293 147.5,214.5C 147.5,215.167 147.167,215.5 146.5,215.5C 144.847,215.66 143.514,216.326 142.5,217.5C 138.802,217.448 135.135,217.114 131.5,216.5C 130.833,215.167 129.833,214.167 128.5,213.5C 127.662,213.158 127.328,212.492 127.5,211.5C 127.113,207.556 127.78,203.889 129.5,200.5C 131.23,199.974 132.564,198.974 133.5,197.5C 136.604,196.225 139.604,196.225 142.5,197.5 Z"/></g>
<g><path style="opacity:0.355" fill="#5b5b5b" d="M 417.5,197.5 C 417.5,197.833 417.5,198.167 417.5,198.5C 417.167,198.5 416.833,198.5 416.5,198.5C 410.833,198.5 405.167,198.5 399.5,198.5C 399.5,230.167 399.5,261.833 399.5,293.5C 405.5,293.5 411.5,293.5 417.5,293.5C 417.192,291.076 417.526,288.743 418.5,286.5C 420.288,287.283 421.288,288.616 421.5,290.5C 420.542,290.047 419.708,289.381 419,288.5C 418.505,290.473 418.338,292.473 418.5,294.5C 411.833,294.5 405.167,294.5 398.5,294.5C 398.5,262.167 398.5,229.833 398.5,197.5C 404.833,197.5 411.167,197.5 417.5,197.5 Z"/></g>
<g><path style="opacity:1" fill="#f9f9f9" d="M 416.5,198.5 C 416.5,210.167 416.5,221.833 416.5,233.5C 417.791,233.737 418.791,233.404 419.5,232.5C 420.5,231.167 421.5,229.833 422.5,228.5C 425.004,227.416 427.337,226.083 429.5,224.5C 437.75,223.914 445.75,224.914 453.5,227.5C 454.035,229.446 455.368,230.446 457.5,230.5C 457.738,232.404 458.738,233.738 460.5,234.5C 461.11,236.434 462.11,238.101 463.5,239.5C 463.959,242.877 464.626,246.211 465.5,249.5C 465.5,255.5 465.5,261.5 465.5,267.5C 464.962,271.524 464.295,275.524 463.5,279.5C 461.75,280.659 460.75,282.326 460.5,284.5C 458.5,285.833 456.833,287.5 455.5,289.5C 454.5,289.833 453.833,290.5 453.5,291.5C 453.167,291.5 452.833,291.5 452.5,291.5C 450.25,292.13 448.25,293.13 446.5,294.5C 440.833,295.833 435.167,295.833 429.5,294.5C 426.965,292.983 424.298,291.65 421.5,290.5C 421.288,288.616 420.288,287.283 418.5,286.5C 417.526,288.743 417.192,291.076 417.5,293.5C 411.5,293.5 405.5,293.5 399.5,293.5C 399.5,261.833 399.5,230.167 399.5,198.5C 405.167,198.5 410.833,198.5 416.5,198.5 Z M 436.5,239.5 C 436.833,239.5 437.167,239.5 437.5,239.5C 437.973,240.906 438.973,241.573 440.5,241.5C 444.64,246.086 446.973,251.419 447.5,257.5C 447.5,259.167 447.5,260.833 447.5,262.5C 446.511,274.157 440.177,279.823 428.5,279.5C 426.381,277.6 424.047,275.934 421.5,274.5C 421.34,272.847 420.674,271.514 419.5,270.5C 419.768,268.901 419.434,267.568 418.5,266.5C 418.36,260.464 418.693,254.464 419.5,248.5C 420.674,247.486 421.34,246.153 421.5,244.5C 422.167,244.5 422.5,244.167 422.5,243.5C 427.423,240.785 432.09,239.452 436.5,239.5 Z"/></g>
<g><path style="opacity:0.795" fill="#c3c3c3" d="M 416.5,198.5 C 416.833,198.5 417.167,198.5 417.5,198.5C 416.856,210.216 417.522,221.549 419.5,232.5C 418.791,233.404 417.791,233.737 416.5,233.5C 416.5,221.833 416.5,210.167 416.5,198.5 Z"/></g>
<g><path style="opacity:0.17" fill="#323232" d="M 417.5,197.5 C 418.33,208.326 418.83,219.326 419,230.5C 419.816,229.177 420.983,228.511 422.5,228.5C 421.5,229.833 420.5,231.167 419.5,232.5C 417.522,221.549 416.856,210.216 417.5,198.5C 417.5,198.167 417.5,197.833 417.5,197.5 Z"/></g>
<g><path style="opacity:0.616" fill="#484848" d="M 70.5,201.5 C 68.901,201.232 67.5676,201.566 66.5,202.5C 65.1667,202.5 63.8333,202.5 62.5,202.5C 64.993,200.416 67.6596,200.083 70.5,201.5 Z"/></g>
<g><path style="opacity:0.886" fill="#929292" d="M 85.5,201.5 C 85.8333,202.167 86.1667,202.833 86.5,203.5C 79.891,202.577 73.2244,202.244 66.5,202.5C 67.5676,201.566 68.901,201.232 70.5,201.5C 75.0522,200.587 80.0522,200.587 85.5,201.5 Z"/></g>
<g><path style="opacity:1" fill="#f9f9f9" d="M 62.5,202.5 C 63.8333,202.5 65.1667,202.5 66.5,202.5C 73.2244,202.244 79.891,202.577 86.5,203.5C 91.3522,204.229 96.0189,205.562 100.5,207.5C 102.452,210.118 104.785,212.452 107.5,214.5C 107.427,216.027 108.094,217.027 109.5,217.5C 109.634,219.292 109.301,220.958 108.5,222.5C 105.669,223.079 103.336,224.412 101.5,226.5C 101.027,227.906 100.027,228.573 98.5,228.5C 95.5203,228.759 93.687,227.426 93,224.5C 91.871,222.859 90.371,221.859 88.5,221.5C 88.0269,220.094 87.0269,219.427 85.5,219.5C 85.3893,218.883 85.056,218.383 84.5,218C 78.6883,216.38 72.8549,216.213 67,217.5C 65.9701,217.836 65.4701,218.503 65.5,219.5C 64.8333,219.5 64.1667,219.5 63.5,219.5C 60.8908,220.443 58.8908,222.11 57.5,224.5C 57.5,225.167 57.1667,225.5 56.5,225.5C 55.1154,226.574 53.9487,227.907 53,229.5C 50.7986,238.39 50.1319,247.39 51,256.5C 51.2321,257.737 51.7321,258.737 52.5,259.5C 53.3007,261.042 53.634,262.708 53.5,264.5C 53.1201,266.698 53.7868,268.365 55.5,269.5C 55.7376,271.404 56.7376,272.738 58.5,273.5C 59.2623,275.262 60.5956,276.262 62.5,276.5C 63.5137,277.674 64.847,278.34 66.5,278.5C 66.8333,278.5 67.1667,278.5 67.5,278.5C 68.5676,279.434 69.901,279.768 71.5,279.5C 73.1667,279.5 74.8333,279.5 76.5,279.5C 78.6976,279.125 80.6976,278.458 82.5,277.5C 88.2546,276.663 91.2546,273.33 91.5,267.5C 92.8333,264.5 92.8333,261.5 91.5,258.5C 85.021,257.509 78.3543,257.176 71.5,257.5C 71.5,253.167 71.5,248.833 71.5,244.5C 84.3226,243.505 97.3226,243.171 110.5,243.5C 110.5,260.167 110.5,276.833 110.5,293.5C 104.833,293.5 99.1667,293.5 93.5,293.5C 93.8226,289.774 93.4892,286.107 92.5,282.5C 90.7377,283.688 89.7377,285.355 89.5,287.5C 88.8333,288.833 87.8333,289.833 86.5,290.5C 84.9731,290.427 83.9731,291.094 83.5,292.5C 75.9353,294.138 68.2686,294.805 60.5,294.5C 57.183,293.503 53.8497,292.503 50.5,291.5C 50.0269,290.094 49.0269,289.427 47.5,289.5C 45.1667,286.5 42.5,283.833 39.5,281.5C 38.0542,277.123 36.0542,273.123 33.5,269.5C 32.6314,267.283 32.298,264.95 32.5,262.5C 31.6287,254.2 31.2953,245.867 31.5,237.5C 31.5569,236.391 31.8902,235.391 32.5,234.5C 34.9757,228.979 37.309,223.312 39.5,217.5C 41.2624,216.738 42.2624,215.404 42.5,213.5C 45.4474,212.219 47.7807,210.219 49.5,207.5C 53.9871,206.008 58.3205,204.342 62.5,202.5 Z"/></g>
<g><path style="opacity:0.71" fill="#696969" d="M 85.5,201.5 C 89.5709,202.356 93.5709,203.523 97.5,205C 98.9423,205.377 99.9423,206.21 100.5,207.5C 96.0189,205.562 91.3522,204.229 86.5,203.5C 86.1667,202.833 85.8333,202.167 85.5,201.5 Z"/></g>
<g><path style="opacity:0.148" fill="#2e2e2e" d="M 221.5,202.5 C 221.169,233.005 221.502,263.338 222.5,293.5C 222.5,293.833 222.5,294.167 222.5,294.5C 221.167,279.515 220.501,264.182 220.5,248.5C 220.5,232.996 220.833,217.663 221.5,202.5 Z"/></g>
<g><path style="opacity:0.682" fill="#636363" d="M 62.5,202.5 C 58.3205,204.342 53.9871,206.008 49.5,207.5C 53.2027,204.483 57.536,202.816 62.5,202.5 Z"/></g>
<g><path style="opacity:1" fill="#fcfcfc" d="M 240.5,237.5 C 253.833,237.5 267.167,237.5 280.5,237.5C 281.495,226.346 281.828,215.012 281.5,203.5C 287.167,203.5 292.833,203.5 298.5,203.5C 298.5,233.5 298.5,263.5 298.5,293.5C 292.833,293.5 287.167,293.5 281.5,293.5C 282.149,279.459 281.482,265.792 279.5,252.5C 266.863,252.521 254.197,252.521 241.5,252.5C 240.504,265.99 240.171,279.656 240.5,293.5C 234.5,293.5 228.5,293.5 222.5,293.5C 222.5,263.5 222.5,233.5 222.5,203.5C 228.167,203.5 233.833,203.5 239.5,203.5C 239.172,215.012 239.505,226.346 240.5,237.5 Z"/></g>
<g><path style="opacity:0.784" fill="#c4c4c4" d="M 280.5,202.5 C 286.5,202.5 292.5,202.5 298.5,202.5C 298.5,202.833 298.5,203.167 298.5,203.5C 292.833,203.5 287.167,203.5 281.5,203.5C 281.828,215.012 281.495,226.346 280.5,237.5C 280.5,225.833 280.5,214.167 280.5,202.5 Z"/></g>
<g><path style="opacity:0.66" fill="#a7a7a7" d="M 221.5,202.5 C 227.833,202.5 234.167,202.5 240.5,202.5C 240.5,214.167 240.5,225.833 240.5,237.5C 239.505,226.346 239.172,215.012 239.5,203.5C 233.833,203.5 228.167,203.5 222.5,203.5C 222.5,233.5 222.5,263.5 222.5,293.5C 221.502,263.338 221.169,233.005 221.5,202.5 Z"/></g>
<g><path style="opacity:0.604" fill="#858585" d="M 298.5,202.5 C 299.498,232.995 299.831,263.662 299.5,294.5C 292.833,294.5 286.167,294.5 279.5,294.5C 279.5,280.5 279.5,266.5 279.5,252.5C 281.482,265.792 282.149,279.459 281.5,293.5C 287.167,293.5 292.833,293.5 298.5,293.5C 298.5,263.5 298.5,233.5 298.5,203.5C 298.5,203.167 298.5,202.833 298.5,202.5 Z"/></g>
<g><path style="opacity:0.233" fill="#2c2c2c" d="M 129.5,200.5 C 127.78,203.889 127.113,207.556 127.5,211.5C 125.13,208.774 124.963,205.774 127,202.5C 127.708,201.619 128.542,200.953 129.5,200.5 Z"/></g>
<g><path style="opacity:0.463" fill="#535353" d="M 49.5,207.5 C 47.7807,210.219 45.4474,212.219 42.5,213.5C 44.1935,210.81 46.5268,208.81 49.5,207.5 Z"/></g>
<g><path style="opacity:0.447" fill="#545454" d="M 100.5,207.5 C 103.855,208.855 106.189,211.189 107.5,214.5C 104.785,212.452 102.452,210.118 100.5,207.5 Z"/></g>
<g><path style="opacity:1" fill="#f6f6f6" d="M 182.5,209.5 C 183.833,209.5 185.167,209.5 186.5,209.5C 186.179,215.026 186.512,220.36 187.5,225.5C 193.833,225.5 200.167,225.5 206.5,225.5C 206.5,230.167 206.5,234.833 206.5,239.5C 200.58,239.618 194.58,239.618 188.5,239.5C 187.34,251.66 187.173,263.993 188,276.5C 188.383,277.056 188.883,277.389 189.5,277.5C 189.414,278.496 189.748,279.329 190.5,280C 193.696,280.805 196.696,280.638 199.5,279.5C 199.842,278.662 200.508,278.328 201.5,278.5C 203.959,278.31 205.626,279.31 206.5,281.5C 206.576,284.973 207.242,288.306 208.5,291.5C 200.414,294.113 192.081,295.113 183.5,294.5C 181.901,294.768 180.568,294.434 179.5,293.5C 178.089,291.086 176.089,289.419 173.5,288.5C 172.105,285.6 170.939,282.6 170,279.5C 169.831,265.994 169.331,252.66 168.5,239.5C 164.898,240.329 161.565,240.329 158.5,239.5C 158.181,234.637 158.514,229.97 159.5,225.5C 162.833,225.5 166.167,225.5 169.5,225.5C 169.5,220.833 169.5,216.167 169.5,211.5C 171.415,211.784 173.081,211.451 174.5,210.5C 176.948,209.527 179.615,209.194 182.5,209.5 Z"/></g>
<g><path style="opacity:0.541" fill="#838383" d="M 182.5,209.5 C 184.167,208.167 185.833,208.167 187.5,209.5C 187.5,214.833 187.5,220.167 187.5,225.5C 186.512,220.36 186.179,215.026 186.5,209.5C 185.167,209.5 183.833,209.5 182.5,209.5 Z"/></g>
<g><path style="opacity:0.457" fill="#6a6a6a" d="M 174.5,210.5 C 173.081,211.451 171.415,211.784 169.5,211.5C 169.5,216.167 169.5,220.833 169.5,225.5C 166.167,225.5 162.833,225.5 159.5,225.5C 159.5,225.167 159.5,224.833 159.5,224.5C 162.5,224.5 165.5,224.5 168.5,224.5C 168.5,219.833 168.5,215.167 168.5,210.5C 170.5,210.5 172.5,210.5 174.5,210.5 Z"/></g>
<g><path style="opacity:0.533" fill="#5a5a5a" d="M 42.5,213.5 C 42.2624,215.404 41.2624,216.738 39.5,217.5C 39.7376,215.596 40.7376,214.262 42.5,213.5 Z"/></g>
<g><path style="opacity:0.039" fill="#242424" d="M 128.5,213.5 C 129.833,214.167 130.833,215.167 131.5,216.5C 129.5,216.5 128.5,215.5 128.5,213.5 Z"/></g>
<g><path style="opacity:0.302" fill="#4c4c4c" d="M 107.5,214.5 C 108.906,214.973 109.573,215.973 109.5,217.5C 108.094,217.027 107.427,216.027 107.5,214.5 Z"/></g>
<g><path style="opacity:0.247" fill="#3e3e3e" d="M 146.5,215.5 C 145.713,217.104 144.38,217.771 142.5,217.5C 143.514,216.326 144.847,215.66 146.5,215.5 Z"/></g>
<g><path style="opacity:0.439" fill="#5d5d5d" d="M 131.5,216.5 C 135.135,217.114 138.802,217.448 142.5,217.5C 138.71,218.902 135.044,218.569 131.5,216.5 Z"/></g>
<g><path style="opacity:0.482" fill="#707070" d="M 85.5,219.5 C 78.7965,216.952 72.1298,216.952 65.5,219.5C 65.4701,218.503 65.9701,217.836 67,217.5C 72.8549,216.213 78.6883,216.38 84.5,218C 85.056,218.383 85.3893,218.883 85.5,219.5 Z"/></g>
<g><path style="opacity:0.5" fill="#505050" d="M 109.5,217.5 C 112.476,219.872 112.143,221.539 108.5,222.5C 109.301,220.958 109.634,219.292 109.5,217.5 Z"/></g>
<g><path style="opacity:0.106" fill="#292929" d="M 85.5,219.5 C 87.0269,219.427 88.0269,220.094 88.5,221.5C 86.9731,221.573 85.9731,220.906 85.5,219.5 Z"/></g>
<g><path style="opacity:0.486" fill="#464646" d="M 88.5,221.5 C 90.371,221.859 91.871,222.859 93,224.5C 93.687,227.426 95.5203,228.759 98.5,228.5C 96.9652,229.788 95.2985,229.788 93.5,228.5C 92.1963,225.87 90.5296,223.537 88.5,221.5 Z"/></g>
<g><path style="opacity:0.027" fill="#262626" d="M 63.5,219.5 C 62.135,221.86 60.135,223.527 57.5,224.5C 58.8908,222.11 60.8908,220.443 63.5,219.5 Z"/></g>
<g><path style="opacity:0.456" fill="#5e5e5e" d="M 429.5,224.5 C 435.319,223.347 441.319,223.181 447.5,224C 450.025,224.424 452.025,225.59 453.5,227.5C 445.75,224.914 437.75,223.914 429.5,224.5 Z"/></g>
<g><path style="opacity:0.306" fill="#414141" d="M 187.5,209.5 C 188.487,214.305 188.821,219.305 188.5,224.5C 194.833,224.5 201.167,224.5 207.5,224.5C 207.821,229.695 207.487,234.695 206.5,239.5C 206.5,234.833 206.5,230.167 206.5,225.5C 200.167,225.5 193.833,225.5 187.5,225.5C 187.5,220.167 187.5,214.833 187.5,209.5 Z"/></g>
<g><path style="opacity:0.216" fill="#535353" d="M 108.5,222.5 C 106.66,224.669 104.326,226.002 101.5,226.5C 103.336,224.412 105.669,223.079 108.5,222.5 Z"/></g>
<g><path style="opacity:0.412" fill="#4d4d4d" d="M 128.5,224.5 C 135.167,224.5 141.833,224.5 148.5,224.5C 148.5,247.833 148.5,271.167 148.5,294.5C 141.833,294.5 135.167,294.5 128.5,294.5C 128.5,271.167 128.5,247.833 128.5,224.5 Z"/></g>
<g><path style="opacity:0.999" fill="#f8f8f8" d="M 129.5,225.5 C 135.5,225.5 141.5,225.5 147.5,225.5C 147.5,248.167 147.5,270.833 147.5,293.5C 141.5,293.5 135.5,293.5 129.5,293.5C 129.5,270.833 129.5,248.167 129.5,225.5 Z"/></g>
<g><path style="opacity:0.168" fill="#2e2e2e" d="M 159.5,224.5 C 159.5,224.833 159.5,225.167 159.5,225.5C 158.514,229.97 158.181,234.637 158.5,239.5C 157.836,237.19 157.503,234.69 157.5,232C 157.525,229.071 158.191,226.571 159.5,224.5 Z"/></g>
<g><path style="opacity:1" fill="#fafafa" d="M 339.5,276.5 C 340.5,276.833 341.167,277.5 341.5,278.5C 341.611,279.117 341.944,279.617 342.5,280C 348.676,281.451 354.176,280.285 359,276.5C 359.483,275.552 359.649,274.552 359.5,273.5C 361.969,272.393 362.969,270.393 362.5,267.5C 362.5,253.5 362.5,239.5 362.5,225.5C 368.5,225.5 374.5,225.5 380.5,225.5C 380.5,248.167 380.5,270.833 380.5,293.5C 374.833,293.5 369.167,293.5 363.5,293.5C 364.446,283.214 362.446,282.214 357.5,290.5C 350.293,294.046 342.627,295.379 334.5,294.5C 331.356,293.427 328.356,292.093 325.5,290.5C 323.801,287.101 322.134,283.768 320.5,280.5C 319.549,279.081 319.216,277.415 319.5,275.5C 319.5,258.833 319.5,242.167 319.5,225.5C 325.167,225.5 330.833,225.5 336.5,225.5C 336.333,241.17 336.5,256.837 337,272.5C 337.122,274.437 337.955,275.77 339.5,276.5 Z"/></g>
<g><path style="opacity:0.481" fill="#5d5d5d" d="M 339.5,276.5 C 337.955,275.77 337.122,274.437 337,272.5C 336.5,256.837 336.333,241.17 336.5,225.5C 330.833,225.5 325.167,225.5 319.5,225.5C 319.5,242.167 319.5,258.833 319.5,275.5C 319.167,275.5 318.833,275.5 318.5,275.5C 317.362,258.877 317.196,242.211 318,225.5C 324.41,224.522 330.91,224.189 337.5,224.5C 337.333,240.17 337.5,255.837 338,271.5C 338.608,273.154 339.108,274.821 339.5,276.5 Z"/></g>
<g><path style="opacity:0.345" fill="#525252" d="M 363.5,294.5 C 363.5,294.167 363.5,293.833 363.5,293.5C 369.167,293.5 374.833,293.5 380.5,293.5C 380.5,270.833 380.5,248.167 380.5,225.5C 374.5,225.5 368.5,225.5 362.5,225.5C 362.5,239.5 362.5,253.5 362.5,267.5C 362.167,267.5 361.833,267.5 361.5,267.5C 361.5,253.167 361.5,238.833 361.5,224.5C 368.167,224.5 374.833,224.5 381.5,224.5C 381.5,247.833 381.5,271.167 381.5,294.5C 375.5,294.5 369.5,294.5 363.5,294.5 Z"/></g>
<g><path style="opacity:0.639" fill="#595959" d="M 429.5,224.5 C 427.337,226.083 425.004,227.416 422.5,228.5C 424.052,225.888 426.386,224.555 429.5,224.5 Z"/></g>
<g><path style="opacity:0.518" fill="#555555" d="M 39.5,217.5 C 37.309,223.312 34.9757,228.979 32.5,234.5C 32.7102,227.848 35.0435,222.182 39.5,217.5 Z"/></g>
<g><path style="opacity:0.506" fill="#696969" d="M 453.5,227.5 C 455.23,228.026 456.564,229.026 457.5,230.5C 455.368,230.446 454.035,229.446 453.5,227.5 Z"/></g>
<g><path style="opacity:0.584" fill="#5f5f5f" d="M 457.5,230.5 C 459.262,231.262 460.262,232.596 460.5,234.5C 458.738,233.738 457.738,232.404 457.5,230.5 Z"/></g>
<g><path style="opacity:0.333" fill="#595959" d="M 56.5,225.5 C 52.8286,236.481 51.4953,247.815 52.5,259.5C 51.7321,258.737 51.2321,257.737 51,256.5C 50.1319,247.39 50.7986,238.39 53,229.5C 53.9487,227.907 55.1154,226.574 56.5,225.5 Z"/></g>
<g><path style="opacity:0.247" fill="#3a3a3a" d="M 240.5,202.5 C 241.495,213.654 241.828,224.988 241.5,236.5C 254.167,236.5 266.833,236.5 279.5,236.5C 279.172,224.988 279.505,213.654 280.5,202.5C 280.5,214.167 280.5,225.833 280.5,237.5C 267.167,237.5 253.833,237.5 240.5,237.5C 240.5,225.833 240.5,214.167 240.5,202.5 Z"/></g>
<g><path style="opacity:0.227" fill="#3f3f3f" d="M 460.5,234.5 C 462.727,235.401 463.727,237.067 463.5,239.5C 462.11,238.101 461.11,236.434 460.5,234.5 Z"/></g>
<g><path style="opacity:0.474" fill="#666666" d="M 168.5,239.5 C 169.331,252.66 169.831,265.994 170,279.5C 170.939,282.6 172.105,285.6 173.5,288.5C 170.987,286.467 169.487,283.801 169,280.5C 168.5,266.837 168.333,253.171 168.5,239.5 Z"/></g>
<g><path style="opacity:0.068" fill="#212121" d="M 188.5,239.5 C 188.205,252.216 188.538,264.883 189.5,277.5C 188.883,277.389 188.383,277.056 188,276.5C 187.173,263.993 187.34,251.66 188.5,239.5 Z"/></g>
<g><path style="opacity:0.078" fill="#3f3f3f" d="M 436.5,239.5 C 432.09,239.452 427.423,240.785 422.5,243.5C 426.206,239.157 430.873,237.824 436.5,239.5 Z"/></g>
<g><path style="opacity:0.145" fill="#3b3b3b" d="M 437.5,239.5 C 439.027,239.427 440.027,240.094 440.5,241.5C 438.973,241.573 437.973,240.906 437.5,239.5 Z"/></g>
<g><path style="opacity:0.327" fill="#646464" d="M 111.5,243.5 C 111.83,260.342 111.497,277.008 110.5,293.5C 110.5,276.833 110.5,260.167 110.5,243.5C 97.3226,243.171 84.3226,243.505 71.5,244.5C 71.1667,244.5 70.8333,244.5 70.5,244.5C 76.9658,243.17 83.7991,242.503 91,242.5C 98.0084,242.5 104.842,242.834 111.5,243.5 Z"/></g>
<g><path style="opacity:0.082" fill="#1e1e1e" d="M 111.5,243.5 C 112.166,251.827 112.5,260.327 112.5,269C 112.498,277.861 111.831,286.361 110.5,294.5C 110.5,294.167 110.5,293.833 110.5,293.5C 111.497,277.008 111.83,260.342 111.5,243.5 Z"/></g>
<g><path style="opacity:0.404" fill="#565656" d="M 463.5,239.5 C 465.41,242.452 466.41,245.786 466.5,249.5C 466.167,249.5 465.833,249.5 465.5,249.5C 464.626,246.211 463.959,242.877 463.5,239.5 Z"/></g>
<g><path style="opacity:0.333" fill="#414141" d="M 440.5,241.5 C 445.064,243.604 447.397,247.27 447.5,252.5C 447.5,254.167 447.5,255.833 447.5,257.5C 446.973,251.419 444.64,246.086 440.5,241.5 Z"/></g>
<g><path style="opacity:0.333" fill="#4f4f4f" d="M 421.5,244.5 C 421.34,246.153 420.674,247.486 419.5,248.5C 419.229,246.62 419.896,245.287 421.5,244.5 Z"/></g>
<g><path style="opacity:0.022" fill="#181818" d="M 31.5,237.5 C 31.2953,245.867 31.6287,254.2 32.5,262.5C 31.7784,262.082 31.2784,261.416 31,260.5C 30.1777,252.655 30.3443,244.989 31.5,237.5 Z"/></g>
<g><path style="opacity:0.244" fill="#4a4a4a" d="M 241.5,252.5 C 241.5,266.5 241.5,280.5 241.5,294.5C 235.167,294.5 228.833,294.5 222.5,294.5C 222.5,294.167 222.5,293.833 222.5,293.5C 228.5,293.5 234.5,293.5 240.5,293.5C 240.171,279.656 240.504,265.99 241.5,252.5 Z"/></g>
<g><path style="opacity:0.17" fill="#373737" d="M 419.5,248.5 C 418.693,254.464 418.36,260.464 418.5,266.5C 417.349,261.35 417.183,256.016 418,250.5C 418.278,249.584 418.778,248.918 419.5,248.5 Z"/></g>
<g><path style="opacity:0.799" fill="#909090" d="M 465.5,249.5 C 465.833,249.5 466.167,249.5 466.5,249.5C 467.726,255.521 467.726,261.521 466.5,267.5C 466.167,267.5 465.833,267.5 465.5,267.5C 465.5,261.5 465.5,255.5 465.5,249.5 Z"/></g>
<g><path style="opacity:0.548" fill="#858585" d="M 447.5,252.5 C 448.833,257.5 448.833,262.5 447.5,267.5C 447.5,265.833 447.5,264.167 447.5,262.5C 447.5,260.833 447.5,259.167 447.5,257.5C 447.5,255.833 447.5,254.167 447.5,252.5 Z"/></g>
<g><path style="opacity:0.819" fill="#8c8c8c" d="M 70.5,244.5 C 70.8333,244.5 71.1667,244.5 71.5,244.5C 71.5,248.833 71.5,253.167 71.5,257.5C 78.3543,257.176 85.021,257.509 91.5,258.5C 89.8333,258.5 88.1667,258.5 86.5,258.5C 81.4556,258.582 76.4556,258.749 71.5,259C 71,258.5 70.5,258 70,257.5C 69.1864,252.98 69.353,248.646 70.5,244.5 Z"/></g>
<g><path style="opacity:0.249" fill="#3d3d3d" d="M 86.5,258.5 C 88.1667,258.5 89.8333,258.5 91.5,258.5C 92.8333,261.5 92.8333,264.5 91.5,267.5C 91.5,264.833 91.5,262.167 91.5,259.5C 89.5853,259.784 87.9187,259.451 86.5,258.5 Z"/></g>
<g><path style="opacity:0.62" fill="#646464" d="M 53.5,264.5 C 54.5375,265.93 55.2041,267.597 55.5,269.5C 53.7868,268.365 53.1201,266.698 53.5,264.5 Z"/></g>
<g><path style="opacity:0.325" fill="#575757" d="M 465.5,267.5 C 465.833,267.5 466.167,267.5 466.5,267.5C 466.498,271.874 465.498,275.874 463.5,279.5C 464.295,275.524 464.962,271.524 465.5,267.5 Z"/></g>
<g><path style="opacity:0.345" fill="#444444" d="M 33.5,269.5 C 36.0542,273.123 38.0542,277.123 39.5,281.5C 36.1857,278.265 34.1857,274.265 33.5,269.5 Z"/></g>
<g><path style="opacity:0.31" fill="#3c3c3c" d="M 55.5,269.5 C 57.2624,270.262 58.2624,271.596 58.5,273.5C 56.7376,272.738 55.7376,271.404 55.5,269.5 Z"/></g>
<g><path style="opacity:0.165" fill="#3e3e3e" d="M 91.5,267.5 C 91.2546,273.33 88.2546,276.663 82.5,277.5C 86.8853,275.384 89.8853,272.051 91.5,267.5 Z"/></g>
<g><path style="opacity:0.8" fill="#8e8e8e" d="M 361.5,267.5 C 361.833,267.5 362.167,267.5 362.5,267.5C 362.969,270.393 361.969,272.393 359.5,273.5C 359.971,271.421 360.637,269.421 361.5,267.5 Z"/></g>
<g><path style="opacity:0.031" fill="#2c2c2c" d="M 58.5,273.5 C 60.4044,273.738 61.7377,274.738 62.5,276.5C 60.5956,276.262 59.2623,275.262 58.5,273.5 Z"/></g>
<g><path style="opacity:0.824" fill="#767676" d="M 419.5,270.5 C 420.674,271.514 421.34,272.847 421.5,274.5C 419.824,273.817 419.157,272.483 419.5,270.5 Z"/></g>
<g><path style="opacity:0.09" fill="#202020" d="M 318.5,275.5 C 318.833,275.5 319.167,275.5 319.5,275.5C 319.216,277.415 319.549,279.081 320.5,280.5C 320.5,281.167 320.5,281.833 320.5,282.5C 319.883,282.389 319.383,282.056 319,281.5C 318.749,279.567 318.249,277.734 317.5,276C 317.728,275.601 318.062,275.435 318.5,275.5 Z"/></g>
<g><path style="opacity:0.239" fill="#555555" d="M 447.5,262.5 C 447.5,264.167 447.5,265.833 447.5,267.5C 445.011,277.899 438.677,281.899 428.5,279.5C 440.177,279.823 446.511,274.157 447.5,262.5 Z"/></g>
<g><path style="opacity:0.145" fill="#353535" d="M 62.5,276.5 C 64.3797,276.229 65.713,276.896 66.5,278.5C 64.847,278.34 63.5137,277.674 62.5,276.5 Z"/></g>
<g><path style="opacity:0.025" fill="#1e1e1e" d="M 82.5,277.5 C 80.6976,278.458 78.6976,279.125 76.5,279.5C 77.9899,277.72 79.9899,277.054 82.5,277.5 Z"/></g>
<g><path style="opacity:0.545" fill="#525252" d="M 206.5,281.5 C 205.626,279.31 203.959,278.31 201.5,278.5C 202.002,276.915 203.002,276.415 204.5,277C 206.037,278.11 206.703,279.61 206.5,281.5 Z"/></g>
<g><path style="opacity:0.455" fill="#515151" d="M 71.5,279.5 C 69.901,279.768 68.5676,279.434 67.5,278.5C 68.9621,277.529 70.2954,277.862 71.5,279.5 Z"/></g>
<g><path style="opacity:0.071" fill="#3a3a3a" d="M 421.5,274.5 C 424.047,275.934 426.381,277.6 428.5,279.5C 425.166,279.019 422.833,277.353 421.5,274.5 Z"/></g>
<g><path style="opacity:0.472" fill="#898989" d="M 189.5,277.5 C 192.505,279.299 195.838,279.966 199.5,279.5C 196.696,280.638 193.696,280.805 190.5,280C 189.748,279.329 189.414,278.496 189.5,277.5 Z"/></g>
<g><path style="opacity:0.468" fill="#848484" d="M 359.5,273.5 C 359.649,274.552 359.483,275.552 359,276.5C 354.176,280.285 348.676,281.451 342.5,280C 341.944,279.617 341.611,279.117 341.5,278.5C 348.863,281.004 354.863,279.338 359.5,273.5 Z"/></g>
<g><path style="opacity:0.224" fill="#414141" d="M 463.5,279.5 C 463.25,281.674 462.25,283.341 460.5,284.5C 460.75,282.326 461.75,280.659 463.5,279.5 Z"/></g>
<g><path style="opacity:0.184" fill="#464646" d="M 39.5,281.5 C 42.5,283.833 45.1667,286.5 47.5,289.5C 43.8333,287.833 41.1667,285.167 39.5,281.5 Z"/></g>
<g><path style="opacity:0.222" fill="#3a3a3a" d="M 363.5,293.5 C 363.5,293.833 363.5,294.167 363.5,294.5C 362.683,292.031 362.183,289.365 362,286.5C 361.252,288.751 359.752,290.084 357.5,290.5C 362.446,282.214 364.446,283.214 363.5,293.5 Z"/></g>
<g><path style="opacity:0.804" fill="#777777" d="M 206.5,281.5 C 208.68,284.661 209.347,287.994 208.5,291.5C 207.242,288.306 206.576,284.973 206.5,281.5 Z"/></g>
<g><path style="opacity:0.471" fill="#636363" d="M 320.5,280.5 C 322.134,283.768 323.801,287.101 325.5,290.5C 322.378,288.874 320.712,286.208 320.5,282.5C 320.5,281.833 320.5,281.167 320.5,280.5 Z"/></g>
<g><path style="opacity:0.067" fill="#393939" d="M 460.5,284.5 C 459.833,287.167 458.167,288.833 455.5,289.5C 456.833,287.5 458.5,285.833 460.5,284.5 Z"/></g>
<g><path style="opacity:0.243" fill="#404040" d="M 47.5,289.5 C 49.0269,289.427 50.0269,290.094 50.5,291.5C 48.9731,291.573 47.9731,290.906 47.5,289.5 Z"/></g>
<g><path style="opacity:0.012" fill="#2c2c2c" d="M 455.5,289.5 C 455.631,290.239 455.464,290.906 455,291.5C 454.31,292.738 453.81,292.738 453.5,291.5C 453.833,290.5 454.5,289.833 455.5,289.5 Z"/></g>
<g><path style="opacity:0.016" fill="#2c2c2c" d="M 86.5,290.5 C 86.0269,291.906 85.0269,292.573 83.5,292.5C 83.9731,291.094 84.9731,290.427 86.5,290.5 Z"/></g>
<g><path style="opacity:0.169" fill="#424242" d="M 173.5,288.5 C 176.089,289.419 178.089,291.086 179.5,293.5C 176.911,292.581 174.911,290.914 173.5,288.5 Z"/></g>
<g><path style="opacity:0.165" fill="#414141" d="M 325.5,290.5 C 328.356,292.093 331.356,293.427 334.5,294.5C 334.5,294.833 334.5,295.167 334.5,295.5C 330.716,295.111 327.716,293.444 325.5,290.5 Z"/></g>
<g><path style="opacity:0.173" fill="#393939" d="M 50.5,291.5 C 53.8497,292.503 57.183,293.503 60.5,294.5C 60.5,294.833 60.5,295.167 60.5,295.5C 56.6871,295.062 53.3538,293.729 50.5,291.5 Z"/></g>
<g><path style="opacity:0.441" fill="#676767" d="M 110.5,293.5 C 110.5,293.833 110.5,294.167 110.5,294.5C 104.5,294.5 98.5,294.5 92.5,294.5C 92.665,291.15 92.4983,287.817 92,284.5C 91.6232,285.942 90.7899,286.942 89.5,287.5C 89.7377,285.355 90.7377,283.688 92.5,282.5C 93.4892,286.107 93.8226,289.774 93.5,293.5C 99.1667,293.5 104.833,293.5 110.5,293.5 Z"/></g>
<g><path style="opacity:0.318" fill="#484848" d="M 421.5,290.5 C 424.298,291.65 426.965,292.983 429.5,294.5C 426.079,294.482 423.412,293.149 421.5,290.5 Z"/></g>
<g><path style="opacity:0.318" fill="#494949" d="M 452.5,291.5 C 451.216,293.614 449.216,294.614 446.5,294.5C 448.25,293.13 450.25,292.13 452.5,291.5 Z"/></g>
<g><path style="opacity:0.463" fill="#777777" d="M 83.5,292.5 C 82.158,293.793 80.4913,294.626 78.5,295C 72.5092,295.499 66.5092,295.666 60.5,295.5C 60.5,295.167 60.5,294.833 60.5,294.5C 68.2686,294.805 75.9353,294.138 83.5,292.5 Z"/></g>
<g><path style="opacity:0.606" fill="#7a7a7a" d="M 208.5,291.5 C 206.779,293.694 204.445,294.861 201.5,295C 195.319,295.819 189.319,295.653 183.5,294.5C 192.081,295.113 200.414,294.113 208.5,291.5 Z"/></g>
<g><path style="opacity:0.52" fill="#6d6d6d" d="M 357.5,290.5 C 355.948,292.959 353.615,294.459 350.5,295C 345.177,295.499 339.844,295.666 334.5,295.5C 334.5,295.167 334.5,294.833 334.5,294.5C 342.627,295.379 350.293,294.046 357.5,290.5 Z"/></g>
</svg>
